HIERARCHY
ROOT Hips
{
	OFFSET 0.000000 0.000000 0.000000
	CHANNELS 6 Xposition Yposition Zposition Xrotation Yrotation Zrotation
	JOINT LeftUpLeg_virtual
	{
		OFFSET 0.000000 0.000000 0.000000
		CHANNELS 3 Xrotation Yrotation Zrotation
		JOINT LeftUpLeg
		{
			OFFSET 10.205400 -3.823500 0.155100
			CHANNELS 3 Xrotation Yrotation Zrotation
			JOINT LeftLeg
			{
				OFFSET 0.708757 -12.982077 0.567790
				CHANNELS 3 Xrotation Yrotation Zrotation
				JOINT LeftFoot
				{
					OFFSET -0.708756 -10.717838 -2.184338
					CHANNELS 3 Xrotation Yrotation Zrotation
					JOINT LeftToeBase
					{
						OFFSET 0.108149 -7.191104 7.560241
						CHANNELS 3 Xrotation Yrotation Zrotation
						JOINT LeftToe_End
						{
							OFFSET 0.070230 0.081724 4.490308
							CHANNELS 3 Xrotation Yrotation Zrotation
							End Site
							{
								OFFSET 0 0 0
							}
						}
					}
				}
			}
		}
	}
	JOINT RightUpLeg_virtual
	{
		OFFSET 0.000000 0.000000 0.000000
		CHANNELS 3 Xrotation Yrotation Zrotation
		JOINT RightUpLeg
		{
			OFFSET -10.205400 -3.823500 0.005500
			CHANNELS 3 Xrotation Yrotation Zrotation
			JOINT RightLeg
			{
				OFFSET -0.708756 -12.982134 0.610632
				CHANNELS 3 Xrotation Yrotation Zrotation
				JOINT RightFoot
				{
					OFFSET 0.708754 -10.717769 -1.945823
					CHANNELS 3 Xrotation Yrotation Zrotation
					JOINT RightToeBase
					{
						OFFSET -0.108140 -7.191069 7.372968
						CHANNELS 3 Xrotation Yrotation Zrotation
						JOINT RightToe_End
						{
							OFFSET -0.070227 0.081735 4.479403
							CHANNELS 3 Xrotation Yrotation Zrotation
							End Site
							{
								OFFSET 0 0 0
							}
						}
					}
				}
			}
		}
	}
	JOINT Spine_virtual
	{
		OFFSET 0.000000 0.000000 0.000000
		CHANNELS 3 Xrotation Yrotation Zrotation
		JOINT Spine
		{
			OFFSET 0.000000 6.876099 0.125700
			CHANNELS 3 Xrotation Yrotation Zrotation
			JOINT Spine1
			{
				OFFSET 0.000000 5.730043 0.104720
				CHANNELS 3 Xrotation Yrotation Zrotation
				JOINT Spine1_split
				{
					OFFSET 0.000000 5.730043 0.104720
					CHANNELS 3 Xrotation Yrotation Zrotation
					JOINT Spine2
					{
						OFFSET 0.000000 5.730043 0.104720
						CHANNELS 3 Xrotation Yrotation Zrotation
						JOINT Neck_virtual
						{
							OFFSET 0.000000 0.000000 0.000000
							CHANNELS 3 Xrotation Yrotation Zrotation
							JOINT Neck
							{
								OFFSET 0.000000 10.314075 0.188496
								CHANNELS 3 Xrotation Yrotation Zrotation
								JOINT Head
								{
									OFFSET 0.000000 7.643700 -2.377400
									CHANNELS 3 Xrotation Yrotation Zrotation
									JOINT HeadTop_End
									{
										OFFSET 0.000000 43.788605 -13.619600
										CHANNELS 3 Xrotation Yrotation Zrotation
										End Site
										{
											OFFSET 0 0 0
										}
									}
								}
							}
						}
						JOINT LeftShoulder_virtual
						{
							OFFSET 0.000000 0.000000 0.000000
							CHANNELS 3 Xrotation Yrotation Zrotation
							JOINT LeftShoulder
							{
								OFFSET 2.196100 4.412489 0.087492
								CHANNELS 3 Xrotation Yrotation Zrotation
								JOINT LeftShoulder_split
								{
									OFFSET 2.196100 4.412489 0.087492
									CHANNELS 3 Xrotation Yrotation Zrotation
									JOINT LeftArm
									{
										OFFSET 8.771219 -2.981674 -0.026999
										CHANNELS 3 Xrotation Yrotation Zrotation
										JOINT LeftForeArm
										{
											OFFSET 8.512804 0.000000 -0.000000
											CHANNELS 3 Xrotation Yrotation Zrotation
											JOINT LeftHand
											{
												OFFSET 18.484802 0.000000 -0.000000
												CHANNELS 3 Xrotation Yrotation Zrotation
												End Site
												{
													OFFSET 0 0 0
												}
											}
										}
									}
								}
							}
						}
						JOINT RightShoulder_virtual
						{
							OFFSET 0.000000 0.000000 0.000000
							CHANNELS 3 Xrotation Yrotation Zrotation
							JOINT RightShoulder
							{
								OFFSET -2.196100 4.412496 0.070690
								CHANNELS 3 Xrotation Yrotation Zrotation
								JOINT RightShoulder_split
								{
									OFFSET -2.196100 4.412496 0.070690
									CHANNELS 3 Xrotation Yrotation Zrotation
									JOINT RightArm
									{
										OFFSET -8.771282 -2.981682 -0.094208
										CHANNELS 3 Xrotation Yrotation Zrotation
										JOINT RightForeArm
										{
											OFFSET -8.494598 0.000000 0.000000
											CHANNELS 3 Xrotation Yrotation Zrotation
											JOINT RightHand
											{
												OFFSET -18.483803 0.000000 0.000001
												CHANNELS 3 Xrotation Yrotation Zrotation
												End Site
												{
													OFFSET 0 0 0
												}
											}
										}
									}
								}
							}
						}
					}
				}
			}
		}
	}
}
MOTION
Frames: 10
Frame Time: 0.03333333
4.677561 15.291843 -2.121275 0.000000 0.000000 0.000000 0.640985 -24.205979 8.549986 -90.643119 -16.599716 45.437987 74.515486 10.811949 -5.119847 35.178657 -3.262077 -6.170957 -0.000651 0.000003 -0.000001 0.000000 0.000000 0.000000 0.640985 -24.205979 8.549986 13.432504 -2.226329 -26.547651 100.661757 28.666362 4.050090 -3.139074 -2.653670 22.262720 59.508126 -2.882724 -4.949007 0.000000 0.000000 0.000000 0.640985 -24.205979 8.549986 2.891951 -1.307955 -5.197129 2.227982 -1.286561 -3.027763 0.000000 0.000000 0.000000 0.000000 0.000000 0.000000 2.233816 -1.285665 -3.025123 -3.962407 3.288526 2.946569 -0.115030 19.920376 2.691781 0.000000 0.000000 0.000000 2.233816 -1.285665 -3.025123 0.452719 1.693814 1.739709 0.000000 0.000000 0.000000 -1.798693 -11.700852 -58.798653 0.000029 -83.306779 0.000042 0.000000 0.000000 0.000000 2.233816 -1.285665 -3.025123 5.136831 17.382620 7.477138 0.000000 0.000000 0.000000 14.034088 22.826757 31.042284 179.999978 58.256056 179.999991 0.000000 0.000000 0.000000 
4.668981 15.310737 -2.100088 0.000000 0.000000 0.000000 0.700843 -24.136126 8.567594 -90.630210 -16.649648 45.360721 74.546133 10.847336 -5.211702 35.128626 -3.237211 -6.104963 -0.000656 -0.000008 -0.000000 0.000000 0.000000 0.000000 0.700843 -24.136126 8.567594 13.380481 -2.193965 -26.517473 100.818052 28.541540 4.103003 -3.415218 -2.710996 22.163677 59.578326 -2.987095 -5.078092 0.000000 0.000000 0.000000 0.700843 -24.136126 8.567594 2.890741 -1.330251 -5.213720 2.223865 -1.290199 -3.038301 0.000000 0.000000 0.000000 0.000000 0.000000 0.000000 2.230375 -1.288410 -3.035256 -3.886561 3.294389 2.964091 -0.011394 19.978532 2.670442 0.000000 0.000000 0.000000 2.230375 -1.288410 -3.035256 0.506472 1.585639 1.768608 0.000000 0.000000 0.000000 -1.905220 -11.648046 -58.840625 0.000122 -83.445937 0.000131 0.000000 0.000000 0.000000 2.230375 -1.288410 -3.035256 5.163611 17.463966 7.466036 0.000000 0.000000 0.000000 14.080601 22.520708 31.066835 179.999978 58.113333 179.999991 0.000000 0.000000 0.000000 
4.661341 15.326587 -2.089016 0.000000 0.000000 0.000000 0.745975 -24.098782 8.589772 -90.559327 -16.703748 45.310771 74.549083 10.896049 -5.300831 35.096845 -3.229353 -6.094991 -0.000664 0.000003 -0.000009 0.000000 0.000000 0.000000 0.745975 -24.098782 8.589772 13.352692 -2.189406 -26.483490 100.935491 28.407803 4.124896 -3.621222 -2.752616 22.121921 59.600668 -3.070093 -5.208955 0.000000 0.000000 0.000000 0.745975 -24.098782 8.589772 2.904627 -1.352117 -5.232251 2.230089 -1.293053 -3.049932 0.000000 0.000000 0.000000 0.000000 0.000000 0.000000 2.235820 -1.290964 -3.046375 -3.822535 3.316912 2.955110 -0.029434 20.063553 2.665990 0.000000 0.000000 0.000000 2.235820 -1.290964 -3.046375 0.530836 1.548092 1.698809 0.000000 0.000000 0.000000 -2.011593 -11.548408 -58.783402 0.000120 -83.644149 0.000117 0.000000 0.000000 0.000000 2.235820 -1.290964 -3.046375 5.178702 17.514130 7.436918 0.000000 0.000000 0.000000 14.117864 22.346436 31.052144 179.999991 58.006905 -179.999991 0.000000 0.000000 0.000000 
4.652207 15.339546 -2.086382 0.000000 0.000000 0.000000 0.782125 -24.099817 8.628242 -90.418611 -16.747397 45.309638 74.519768 10.942349 -5.389492 35.074650 -3.242356 -6.161550 -0.000662 0.000000 -0.000001 0.000000 0.000000 0.000000 0.782125 -24.099817 8.628242 13.328830 -2.185158 -26.462045 101.013525 28.302730 4.127342 -3.747499 -2.777335 22.112118 59.606699 -3.109251 -5.291595 0.000000 0.000000 0.000000 0.782125 -24.099817 8.628242 2.921923 -1.373146 -5.257330 2.242118 -1.294394 -3.067451 0.000000 0.000000 0.000000 0.000000 0.000000 0.000000 2.247328 -1.293199 -3.063673 -3.763392 3.344354 2.940334 -0.125245 20.158062 2.697602 0.000000 0.000000 0.000000 2.247328 -1.293199 -3.063673 0.533399 1.559041 1.582375 0.000000 0.000000 0.000000 -2.109732 -11.376555 -58.705838 0.000006 -83.880221 -0.000010 0.000000 0.000000 0.000000 2.247328 -1.293199 -3.063673 5.188738 17.547039 7.437156 0.000000 0.000000 0.000000 14.085629 22.272096 30.964301 179.999991 58.006952 179.999991 0.000000 0.000000 0.000000 
4.640841 15.349247 -2.088226 0.000000 0.000000 0.000000 0.808484 -24.114080 8.671584 -90.241504 -16.783638 45.343099 74.467777 10.977999 -5.485911 35.063456 -3.267286 -6.270249 -0.000644 0.000017 -0.000003 0.000000 0.000000 0.000000 0.808484 -24.114080 8.671584 13.304763 -2.170821 -26.443644 101.050969 28.254070 4.126173 -3.815717 -2.790548 22.107302 59.639504 -3.099483 -5.289912 0.000000 0.000000 0.000000 0.808484 -24.114080 8.671584 2.936242 -1.385454 -5.287226 2.254015 -1.294914 -3.087605 0.000000 0.000000 0.000000 0.000000 0.000000 0.000000 2.258682 -1.295228 -3.083954 -3.715551 3.362794 2.953030 -0.217476 20.257257 2.713153 0.000000 0.000000 0.000000 2.258682 -1.295228 -3.083954 0.533443 1.569944 1.508394 0.000000 0.000000 0.000000 -2.186859 -11.180676 -58.684425 0.000188 -84.079171 0.000161 0.000000 0.000000 0.000000 2.258682 -1.295228 -3.083954 5.196415 17.586091 7.510219 0.000000 0.000000 0.000000 14.008886 22.211285 30.786863 179.999991 58.074319 179.999991 0.000000 0.000000 0.000000 
4.628525 15.355759 -2.091146 0.000000 0.000000 0.000000 0.815108 -24.120420 8.706556 -90.061939 -16.815330 45.381963 74.408982 11.003990 -5.585989 35.064385 -3.291073 -6.370900 -0.000647 0.000014 0.000003 0.000000 0.000000 0.000000 0.815108 -24.120420 8.706556 13.295414 -2.155480 -26.419752 101.058584 28.260241 4.126600 -3.865590 -2.800233 22.085345 59.720585 -3.050790 -5.207181 0.000000 0.000000 0.000000 0.815108 -24.120420 8.706556 2.950941 -1.388846 -5.312091 2.266127 -1.295405 -3.102834 0.000000 0.000000 0.000000 0.000000 0.000000 0.000000 2.270278 -1.297254 -3.099466 -3.688601 3.373973 2.977122 -0.271899 20.352210 2.673155 0.000000 0.000000 0.000000 2.270278 -1.297254 -3.099466 0.539273 1.564959 1.464279 0.000000 0.000000 0.000000 -2.237664 -11.038661 -58.684589 0.000089 -84.201534 0.000057 0.000000 0.000000 0.000000 2.270278 -1.297254 -3.099466 5.204307 17.625120 7.617479 0.000000 0.000000 0.000000 13.938729 22.162070 30.589320 179.999978 58.142197 179.999991 0.000000 0.000000 0.000000 
4.616557 15.360065 -2.093634 0.000000 0.000000 0.000000 0.796324 -24.120193 8.728988 -89.896382 -16.838607 45.406196 74.353152 11.023129 -5.667357 35.073428 -3.308103 -6.444866 -0.000625 0.000005 0.000005 0.000000 0.000000 0.000000 0.796324 -24.120193 8.728988 13.311366 -2.150026 -26.390714 101.049159 28.293254 4.125570 -3.911990 -2.807573 22.047905 59.830470 -2.982499 -5.081671 0.000000 0.000000 0.000000 0.796324 -24.120193 8.728988 2.966483 -1.393028 -5.321648 2.278763 -1.295593 -3.107693 0.000000 0.000000 0.000000 0.000000 0.000000 0.000000 2.282346 -1.299422 -3.104587 -3.675494 3.392496 2.965438 -0.303792 20.435433 2.592434 0.000000 0.000000 0.000000 2.282346 -1.299422 -3.104587 0.548931 1.554981 1.384073 0.000000 0.000000 0.000000 -2.264956 -10.926575 -58.659106 -0.000038 -84.269986 0.000002 0.000000 0.000000 0.000000 2.282346 -1.299422 -3.104587 5.207645 17.644300 7.669140 0.000000 0.000000 0.000000 13.890767 22.190368 30.488475 -180.000005 58.210212 179.999978 0.000000 0.000000 0.000000 
4.604977 15.363934 -2.095345 0.000000 0.000000 0.000000 0.764879 -24.118130 8.740429 -89.752367 -16.858029 45.414717 74.305908 11.037156 -5.714892 35.083595 -3.319676 -6.506009 -0.000638 0.000003 0.000000 0.000000 0.000000 0.000000 0.764879 -24.118130 8.740429 13.341080 -2.152705 -26.353079 101.030376 28.313665 4.121369 -3.943749 -2.811560 22.012414 59.928107 -2.916898 -4.964832 0.000000 0.000000 0.000000 0.764879 -24.118130 8.740429 2.974426 -1.407156 -5.310801 2.286136 -1.296048 -3.100968 0.000000 0.000000 0.000000 0.000000 0.000000 0.000000 2.289217 -1.301897 -3.097965 -3.664898 3.425361 2.904879 -0.336605 20.514741 2.492550 0.000000 0.000000 0.000000 2.289217 -1.301897 -3.097965 0.561429 1.549783 1.242414 0.000000 0.000000 0.000000 -2.262493 -10.752998 -58.623999 0.000149 -84.326082 0.000119 0.000000 0.000000 0.000000 2.289217 -1.301897 -3.097965 5.205957 17.642795 7.616628 0.000000 0.000000 0.000000 13.856637 22.325769 30.529740 179.999978 58.310541 179.999991 0.000000 0.000000 0.000000 
4.593616 15.368759 -2.095137 0.000000 0.000000 0.000000 0.747109 -24.115615 8.745281 -89.635824 -16.890918 45.416298 74.272597 11.049355 -5.737147 35.088857 -3.331685 -6.574667 -0.000630 0.000008 0.000001 0.000000 0.000000 0.000000 0.747109 -24.115615 8.745281 13.355458 -2.153099 -26.297466 101.005753 28.296091 4.113969 -3.944827 -2.812130 21.997557 59.985576 -2.870297 -4.887639 0.000000 0.000000 0.000000 0.747109 -24.115615 8.745281 2.966789 -1.427565 -5.279567 2.280861 -1.299353 -3.080200 0.000000 0.000000 0.000000 0.000000 0.000000 0.000000 2.283490 -1.304794 -3.077062 -3.656382 3.466737 2.816281 -0.387516 20.593341 2.384495 0.000000 0.000000 0.000000 2.283490 -1.304794 -3.077062 0.571679 1.557496 1.036828 0.000000 0.000000 0.000000 -2.220102 -10.522780 -58.575907 0.000216 -84.393845 0.000201 0.000000 0.000000 0.000000 2.283490 -1.304794 -3.077062 5.203726 17.639407 7.490128 0.000000 0.000000 0.000000 13.839765 22.503916 30.660371 179.999991 58.435581 179.999991 0.000000 0.000000 0.000000 
4.583551 15.375233 -2.090748 0.000000 0.000000 0.000000 0.757277 -24.115294 8.749938 -89.549347 -16.945942 45.414239 74.261498 11.062319 -5.753079 35.083096 -3.342410 -6.643371 -0.000653 0.000002 0.000006 0.000000 0.000000 0.000000 0.757277 -24.115294 8.749938 13.340832 -2.137484 -26.226791 100.980344 28.240337 4.105615 -3.922900 -2.808478 22.005551 60.007570 -2.844843 -4.849647 0.000000 0.000000 0.000000 0.757277 -24.115294 8.749938 2.941429 -1.438921 -5.239118 2.259536 -1.303631 -3.051069 0.000000 0.000000 0.000000 0.000000 0.000000 0.000000 2.261622 -1.308130 -3.047702 -3.658013 3.503209 2.730576 -0.460879 20.649422 2.307025 0.000000 0.000000 0.000000 2.261622 -1.308130 -3.047702 0.572003 1.579510 0.820033 0.000000 0.000000 0.000000 -2.146401 -10.317135 -58.527754 -0.000100 -84.472597 -0.000098 0.000000 0.000000 0.000000 2.261622 -1.308130 -3.047702 5.204580 17.652750 7.382669 0.000000 0.000000 0.000000 13.844221 22.606958 30.772120 179.999978 58.544775 179.999991 0.000000 0.000000 0.000000 
